<?xml version="1.0" encoding="UTF-8" standalone="no"?>
<svg
   xmlns:dc="http://purl.org/dc/elements/1.1/"
   xmlns:cc="http://creativecommons.org/ns#"
   xmlns:rdf="http://www.w3.org/1999/02/22-rdf-syntax-ns#"
   xmlns:svg="http://www.w3.org/2000/svg"
   xmlns="http://www.w3.org/2000/svg"
   viewBox="0 0 733.33331 90.666664"
   height="90.666664"
   width="733.33331"
   xml:space="preserve"
   id="svg2"
   version="1.1"><metadata
     id="metadata8"><rdf:RDF><cc:Work
         rdf:about=""><dc:format>image/svg+xml</dc:format><dc:type
           rdf:resource="http://purl.org/dc/dcmitype/StillImage" /></cc:Work></rdf:RDF></metadata><defs
     id="defs6" /><g
     transform="matrix(1.3333333,0,0,-1.3333333,0,90.666667)"
     id="g10"><g
       transform="scale(0.1)"
       id="g12"><path
         id="path14"
         style="fill:#ffffff;fill-opacity:1;fill-rule:nonzero;stroke:none"
         d="M 324.336,518.535 V 20.2031 H 158.223 V 518.535 H 21.7773 V 659.219 H 460.781 V 518.535 H 324.336" /><path
         id="path16"
         style="fill:#ffffff;fill-opacity:1;fill-rule:nonzero;stroke:none"
         d="M 1378.62,518.535 H 1181.15 V 411.746 H 1367.6 V 271.063 H 1181.15 V 160.891 h 197.47 V 20.2031 H 1015.04 V 659.219 h 363.58 V 518.535" /><path
         id="path18"
         style="fill:#ffffff;fill-opacity:1;fill-rule:nonzero;stroke:none"
         d="m 2506.63,149.023 h 36.45 c 41.8,0 71.74,5.372 89.83,16.106 18.08,10.73 27.12,27.969 27.12,51.695 0,23.735 -9.04,40.957 -27.12,51.699 -18.09,10.723 -48.03,16.106 -89.83,16.106 h -36.45 z m 0,259.336 h 30.51 c 51.98,0 77.98,20.625 77.98,61.868 0,41.238 -26,61.875 -77.98,61.875 h -30.51 z m -166.1,250.86 h 247.46 c 58.76,0 103.4,-14.129 133.9,-42.371 30.52,-28.262 45.78,-68.938 45.78,-122.043 0,-32.207 -5.8,-58.899 -17.38,-80.086 -11.59,-21.184 -29.24,-39.133 -52.97,-53.821 23.73,-4.519 43.92,-11.433 60.6,-20.761 16.66,-9.317 30.21,-20.762 40.67,-34.324 10.45,-13.555 17.93,-28.809 22.46,-45.762 4.52,-16.953 6.78,-35.039 6.78,-54.238 0,-29.954 -5.22,-56.504 -15.67,-79.668 -10.46,-23.176 -25.15,-42.6684 -44.07,-58.477 -18.94,-15.8203 -41.96,-27.6875 -69.08,-35.5977 -27.12,-7.9219 -57.62,-11.8672 -91.52,-11.8672 H 2340.53 V 659.219" /><path
         id="path20"
         style="fill:#ffffff;fill-opacity:1;fill-rule:nonzero;stroke:none"
         d="m 3065.97,373.613 h 31.35 c 32.77,0 57.91,6.778 75.43,20.34 17.51,13.559 26.28,33.059 26.28,58.481 0,25.425 -8.77,44.921 -26.28,58.472 -17.52,13.567 -42.66,20.344 -75.43,20.344 h -31.35 z M 3431.24,20.2031 H 3224.45 L 3065.97,265.984 V 20.2031 H 2899.86 V 659.219 h 258.49 c 35.6,0 66.66,-5.227 93.22,-15.672 26.56,-10.461 48.44,-24.727 65.69,-42.805 17.22,-18.086 30.21,-38.984 38.98,-62.715 8.75,-23.73 13.14,-49.148 13.14,-76.269 0,-48.606 -11.73,-88.008 -35.17,-118.235 -23.46,-30.222 -58.06,-50.71 -103.82,-61.445 L 3431.24,20.2031" /><path
         id="path22"
         style="fill:#ffffff;fill-opacity:1;fill-rule:nonzero;stroke:none"
         d="M 3636.93,659.219 V 20.2031 H 3470.82 V 659.219 h 166.11" /><path
         id="path24"
         style="fill:#ffffff;fill-opacity:1;fill-rule:nonzero;stroke:none"
         d="m 3910.58,160.891 h 38.14 c 28.81,0 54.51,4.519 77.12,13.562 22.59,9.031 41.66,21.465 57.21,37.285 15.52,15.813 27.39,34.61 35.59,56.367 8.19,21.739 12.29,45.618 12.29,71.614 0,25.418 -4.24,49.148 -12.72,71.187 -8.47,22.032 -20.48,40.957 -36.01,56.782 -15.55,15.808 -34.62,28.242 -57.21,37.292 -22.61,9.024 -48.03,13.555 -76.27,13.555 h -38.14 z m -166.11,498.328 h 245.77 c 43.5,0 84.33,-8.758 122.47,-26.27 38.13,-17.519 71.47,-40.832 100,-69.922 28.53,-29.101 50.98,-63.007 67.38,-101.699 16.37,-38.699 24.58,-79.238 24.58,-121.609 0,-41.821 -8.06,-82.082 -24.16,-120.774 -16.1,-38.711 -38.43,-72.754 -66.95,-102.121 C 4185.02,87.4414 4151.69,63.9844 4113.55,46.4766 4075.42,28.9648 4034.32,20.2031 3990.24,20.2031 H 3744.47 V 659.219" /><path
         id="path26"
         style="fill:#ffffff;fill-opacity:1;fill-rule:nonzero;stroke:none"
         d="m 4690.2,377.852 h 329.67 c 0,-33.899 -1.42,-64.7 -4.24,-92.372 -2.84,-27.699 -8.47,-53.402 -16.95,-77.128 -11.86,-33.34 -27.97,-62.864 -48.31,-88.567 C 4930.03,94.0703 4906.16,72.6055 4878.76,55.3828 4851.35,38.1367 4821.26,25 4788.5,15.9688 4755.72,6.93359 4721.26,2.41016 4685.11,2.41016 c -49.73,0 -95.07,8.19534 -136.03,24.57034 -40.96,16.3867 -76.14,39.414 -105.52,69.0742 -29.38,29.6683 -52.26,65.2613 -68.64,106.7893 -16.39,41.531 -24.58,87.422 -24.58,137.722 0,49.707 8.06,95.34 24.15,136.868 16.11,41.531 39,76.98 68.65,106.367 29.66,29.363 65.4,52.246 107.21,68.64 41.81,16.379 88.42,24.582 139.85,24.582 66.66,0 125.13,-14.414 175.43,-43.222 50.28,-28.821 90.1,-73.457 119.49,-133.906 l -157.63,-65.254 c -14.71,35.015 -33.77,60.164 -57.21,75.418 -23.45,15.254 -50.15,22.89 -80.08,22.89 -24.88,0 -47.47,-4.668 -67.81,-13.984 -20.34,-9.324 -37.71,-22.61 -52.12,-39.832 -14.41,-17.246 -25.72,-38.012 -33.9,-62.297 -8.2,-24.297 -12.29,-51.414 -12.29,-81.356 0,-27.121 3.53,-52.265 10.6,-75.429 7.05,-23.176 17.64,-43.227 31.78,-60.18 14.12,-16.941 31.64,-30.074 52.54,-39.402 20.89,-9.324 45.2,-13.985 72.88,-13.985 16.38,0 32.21,1.829 47.47,5.508 15.25,3.672 28.94,9.602 41.1,17.805 12.14,8.183 22.17,18.766 30.09,31.773 7.9,12.993 13.27,28.821 16.1,47.461 H 4690.2 v 128.821" /><path
         id="path28"
         style="fill:#ffffff;fill-opacity:1;fill-rule:nonzero;stroke:none"
         d="M 5458.18,518.535 H 5260.72 V 411.746 h 186.45 V 271.063 H 5260.72 V 160.891 h 197.46 V 20.2031 H 5094.61 V 659.219 h 363.57 V 518.535" /><path
         id="path30"
         style="fill:#e22b23;fill-opacity:1;fill-rule:nonzero;stroke:none"
         d="m 2100,660 h -480 c -44.18,0 -80,-35.82 -80,-80 V 100 c 0,-44.1797 35.82,-80 80,-80 v 330 h 480 V 20 c 44.18,0 80,35.8203 80,80 v 480 c 0,44.18 -35.82,80 -80,80 z M 1760,20 h 200 V 240 H 1760 V 20" /><path
         id="path32"
         style="fill:#ffffff;fill-opacity:1;fill-rule:nonzero;stroke:none"
         d="M 910,350 V 20 H 770 V 240 H 570 V 20 H 430 v 330 h 480" /><path
         id="path34"
         style="fill:#ffffff;fill-opacity:1;fill-rule:nonzero;stroke:none"
         d="M 2100,350 V 20 H 1960 V 240 H 1760 V 20 h -140 v 330 h 480" /></g></g></svg>